# xmcd
#
# Track frame offsets:
#	150
#	12050
#	29310
#	47023
#	58336
#	73259
#	89255
#	104440
#	119846
#	132631
#	154185
#	169319
#
# Disc length: 2456
#
# Revision: 2
# Processed by: cddbd v1.5.1PL0 Copyright (c) Steve Scherf et al.
# Submitted via: ExactAudioCopy v0.90b4
# Normalized: r1:TRMNUM
#
DISCID=b009960c
DTITLE=Leslie - Daydreamin'
DYEAR=1978
DGENRE=Pop
TTITLE0=Day Dreamer
TTITLE1=We Are All Alone
TTITLE2=Even Now
TTITLE3=Before My Heart Finds Out
TTITLE4=Good Morning Sorrow
TTITLE5=Undercover Angel
TTITLE6=I Like Dreamin'
TTITLE7=I Need You
TTITLE8=You Made Me Believe In Magic
TTITLE9=Just The Way You Are
TTITLE10=A Little Bit More
TTITLE11=Pistol Packin' Melody
EXTD=
EXTT0=
EXTT1=
EXTT2=
EXTT3=
EXTT4=
EXTT5=
EXTT6=
EXTT7=
EXTT8=
EXTT9=
EXTT10=
EXTT11=
PLAYORDER=
